<svg xmlns="http://www.w3.org/2000/svg" width="115.742" height="92.594" viewBox="0 0 115.742 92.594">
  <path id="Icon_awesome-robot" data-name="Icon awesome-robot" d="M0,46.3V69.445a5.781,5.781,0,0,0,5.787,5.787h5.787V40.51H5.787A5.781,5.781,0,0,0,0,46.3ZM83.913,17.361H63.658V5.787a5.787,5.787,0,1,0-11.574,0V17.361H31.829A14.464,14.464,0,0,0,17.361,31.829v49.19A11.585,11.585,0,0,0,28.936,92.594H86.807A11.585,11.585,0,0,0,98.381,81.019V31.829A14.464,14.464,0,0,0,83.913,17.361ZM46.3,75.232H34.723V69.445H46.3Zm-5.787-21.7A7.234,7.234,0,1,1,47.744,46.3,7.232,7.232,0,0,1,40.51,53.531Zm23.148,21.7H52.084V69.445H63.658Zm17.361,0H69.445V69.445H81.019Zm-5.787-21.7A7.234,7.234,0,1,1,82.466,46.3,7.232,7.232,0,0,1,75.232,53.531ZM109.955,40.51h-5.787V75.232h5.787a5.781,5.781,0,0,0,5.787-5.787V46.3A5.781,5.781,0,0,0,109.955,40.51Z" fill="#bfc9d3"/>
</svg>
