<svg xmlns="http://www.w3.org/2000/svg" width="101.546" height="101.546" viewBox="0 0 101.546 101.546">
  <g id="Icon_feather-cpu" data-name="Icon feather-cpu" transform="translate(2 2)">
    <path id="Path_16" data-name="Path 16" d="M14.6,6H66.166a8.6,8.6,0,0,1,8.6,8.6V66.166a8.6,8.6,0,0,1-8.6,8.6H14.6a8.6,8.6,0,0,1-8.6-8.6V14.6A8.6,8.6,0,0,1,14.6,6Z" transform="translate(8.393 8.393)" fill="none" stroke="#bfc9d3" stroke-linecap="round" stroke-linejoin="round" stroke-width="7"/>
    <path id="Path_17" data-name="Path 17" d="M13.5,13.5H39.285V39.285H13.5Z" transform="translate(22.38 22.38)" fill="none" stroke="#bfc9d3" stroke-linecap="round" stroke-linejoin="round" stroke-width="7"/>
    <path id="Path_18" data-name="Path 18" d="M13.5,1.5V14.393" transform="translate(22.38 0)" fill="none" stroke="#bfc9d3" stroke-linecap="round" stroke-linejoin="round" stroke-width="7"/>
    <path id="Path_19" data-name="Path 19" d="M22.5,1.5V14.393" transform="translate(39.166 0)" fill="none" stroke="#bfc9d3" stroke-linecap="round" stroke-linejoin="round" stroke-width="7"/>
    <path id="Path_20" data-name="Path 20" d="M13.5,30V42.893" transform="translate(22.38 53.154)" fill="none" stroke="#bfc9d3" stroke-linecap="round" stroke-linejoin="round" stroke-width="7"/>
    <path id="Path_21" data-name="Path 21" d="M22.5,30V42.893" transform="translate(39.166 53.154)" fill="none" stroke="#bfc9d3" stroke-linecap="round" stroke-linejoin="round" stroke-width="7"/>
    <path id="Path_22" data-name="Path 22" d="M30,13.5H42.893" transform="translate(53.154 22.38)" fill="none" stroke="#bfc9d3" stroke-linecap="round" stroke-linejoin="round" stroke-width="7"/>
    <path id="Path_23" data-name="Path 23" d="M30,21H42.893" transform="translate(53.154 36.368)" fill="none" stroke="#bfc9d3" stroke-linecap="round" stroke-linejoin="round" stroke-width="7"/>
    <path id="Path_24" data-name="Path 24" d="M1.5,13.5H14.393" transform="translate(0 22.38)" fill="none" stroke="#bfc9d3" stroke-linecap="round" stroke-linejoin="round" stroke-width="7"/>
    <path id="Path_25" data-name="Path 25" d="M1.5,21H14.393" transform="translate(0 36.368)" fill="none" stroke="#bfc9d3" stroke-linecap="round" stroke-linejoin="round" stroke-width="7"/>
  </g>
</svg>
