<svg xmlns="http://www.w3.org/2000/svg" width="141.407" height="135.377" viewBox="0 0 141.407 135.377">
	<path d="M139.071,6.13H8.322A5.32,5.32,0,0,0,3,11.452V130.169a5.368,5.368,0,0,0,2.268,4.362,6,6,0,0,0,3.055,3.655,5.99,5.99,0,0,0,5.349,3.321H133.722a5.99,5.99,0,0,0,5.349-3.321,6.016,6.016,0,0,0,3.055-3.642,5.308,5.308,0,0,0,2.281-4.362V11.452A5.348,5.348,0,0,0,139.071,6.13ZM7.082,135.345a4.145,4.145,0,0,0,.587.093v.067a5.163,5.163,0,0,0,.067.654A3.89,3.89,0,0,1,7.082,135.345ZM99.374,15.134A7.67,7.67,0,1,1,91.7,22.8,7.662,7.662,0,0,1,99.374,15.134Zm-53.356,0a7.67,7.67,0,1,1-7.67,7.67A7.662,7.662,0,0,1,46.018,15.134Zm87.7,125.053H13.671a4.6,4.6,0,0,1-3.321-1.4,5.164,5.164,0,0,0,.654.067H136.39a5.164,5.164,0,0,0,.654-.067A4.654,4.654,0,0,1,133.722,140.187Zm4.349-3a4.651,4.651,0,0,1-1.681.32H11a4.763,4.763,0,0,1-1.681-.32A4.651,4.651,0,0,1,9,135.5H138.391A4.651,4.651,0,0,1,138.071,137.186Zm1.587-1.014a5.164,5.164,0,0,0,.067-.654v-.067c.2-.027.4-.053.587-.093A4.726,4.726,0,0,1,139.658,136.172Z" transform="translate(-3 -6.13)" fill="#1915a7" />
</svg>
