<svg id="Group_97" data-name="Group 97" xmlns="http://www.w3.org/2000/svg" xmlns:xlink="http://www.w3.org/1999/xlink" width="91.532" height="84.22" viewBox="0 0 91.532 84.22">
  <g id="Group_96" data-name="Group 96" clip-path="url(#clip-path)">
    <path id="Path_31" data-name="Path 31" d="M4.188,143.677a26.722,26.722,0,0,1-2.959-2.27,3.5,3.5,0,0,1-.084-5.248,13.893,13.893,0,0,1,4.481-3.021c7.641-3.512,15.3-6.98,22.951-10.478,3.659-1.673,7.278-3.427,11.284-4.184.925-.175,1.094.065,1.129.9.265,6.361.058,12.724.122,19.086.029,2.919,1.139,4.087,4.089,4.261a8.556,8.556,0,0,0,2.4-.227,2.846,2.846,0,0,0,2.445-3.034c.008-6.6.04-13.21,0-19.815-.007-1.137.274-1.331,1.367-1.112A46.853,46.853,0,0,1,61.73,122.19c8.479,3.9,17.048,7.61,25.446,11.692a10.406,10.406,0,0,1,3.043,2.148,3.6,3.6,0,0,1,.014,5.454,14.493,14.493,0,0,1-3.451,2.414c-.626.358-1.26.7-1.891,1.051-4.994,2.226-9.977,4.479-14.986,6.671-4.789,2.095-9.394,4.645-14.4,6.2a32.264,32.264,0,0,1-23.636-1.547q-12.192-5.552-24.4-11.066c-1.1-.5-2.187-1.017-3.28-1.526" transform="translate(-0.001 -89.735)" fill="#bfc9d3"/>
    <path id="Path_32" data-name="Path 32" d="M91.71,245.443c.57,3.061-1.181,4.789-3.584,6.051-6.42,3.371-13.1,6.188-19.714,9.145-4.661,2.084-9.172,4.57-14.132,5.906a31.382,31.382,0,0,1-21.353-1.676c-8.654-3.82-17.243-7.787-25.856-11.7a22.076,22.076,0,0,1-4.331-2.383C1.1,249.542.078,248.017.455,245.822a16.99,16.99,0,0,0,.1-2.05c.072-1.5.72-1.936,2.136-1.36,1.342.546,2.654,1.164,3.974,1.762q13.529,6.135,27.051,12.282a31.191,31.191,0,0,0,14.493,2.45c5.72-.222,10.762-2.48,15.807-4.836,8.134-3.8,16.29-7.552,24.436-11.324.219-.1.438-.2.663-.292,1.945-.749,2.581-.312,2.595,1.781,0,.4,0,.806,0,1.209" transform="translate(-0.286 -183.461)" fill="#bfc9d3"/>
    <path id="Path_33" data-name="Path 33" d="M136.784,9.808c1.053-3.271,2.73-6.086,5.77-7.906a12.687,12.687,0,0,1,18.783,6.917c.089.263.2.516.307.774a23.712,23.712,0,0,1,.136,5.032,12.585,12.585,0,0,1-10,10.483,12.714,12.714,0,0,1-14.711-8.848,10.44,10.44,0,0,1-.289-6.453" transform="translate(-103.354 0)" fill="#bfc9d3"/>
  </g>
</svg>
