<svg id="nhl-logo" data-name="nhl-logo" fill="currentColor" xmlns="http://www.w3.org/2000/svg" viewBox="0 0 131.81 103.07">
    <path d="M35.86,36.06V18.58H33.1v11.6L22.65,18.29h-1V35.78h2.76V24.16l10.47,11.9Z"></path>
    <path d="M51.62,35.78h2.77V18.58H51.62v6.85H43V18.58H40.21v17.2H43V27.91h8.65Z"></path>
    <path d="M29.07,59a3.32,3.32,0,0,1-2.15.65A5.46,5.46,0,0,1,22.41,57l-1.95,1.48a7.27,7.27,0,0,0,2.68,2.74,7.41,7.41,0,0,0,3.81,1,6.22,6.22,0,0,0,4.13-1.37,4.46,4.46,0,0,0,1.63-3.61,4,4,0,0,0-1-2.81,9.53,9.53,0,0,0-3.1-2.08l-1.93-.89a9.12,9.12,0,0,1-1.85-1.09A1.69,1.69,0,0,1,24.26,49,1.77,1.77,0,0,1,25,47.41a3.09,3.09,0,0,1,1.85-.53A4.18,4.18,0,0,1,30.49,49l1.93-1.49a6.15,6.15,0,0,0-2.27-2.23,6.46,6.46,0,0,0-3.28-.85A5.86,5.86,0,0,0,23,45.68a4.16,4.16,0,0,0-1.56,3.37,3.9,3.9,0,0,0,1.06,2.79,9.09,9.09,0,0,0,3,2l1.9.89a8.31,8.31,0,0,1,1.94,1.15,1.83,1.83,0,0,1,.59,1.43A2.15,2.15,0,0,1,29.07,59Z"></path>
    <path d="M43.05,61.87V47.15h5.81V44.67H34.51v2.48h5.78V61.87Z"></path>
    <path d="M63.06,59.39H54.2V54h6.44v-2.4H54.2v-4.4h8.55V44.67H51.44v17.2H63.06Z"></path>
    <path d="M90.18,44.67H84.79v17.2h5.39A9.51,9.51,0,0,0,97,59.46a8.15,8.15,0,0,0,2.57-6.21A8.08,8.08,0,0,0,97,47.05,9.6,9.6,0,0,0,90.18,44.67Zm4.74,13a6.54,6.54,0,0,1-4.77,1.72h-2.6V47.17h2.61a6.71,6.71,0,0,1,4.78,1.65,5.78,5.78,0,0,1,1.76,4.42A5.94,5.94,0,0,1,94.92,57.67Z"></path>
    <path d="M105.58,54H112v-2.4h-6.43v-4.4h8.54V44.67h-11.3v17.2h11.62V59.39h-8.86Z"></path>
    <path d="M129.05,44.67v11.6L118.6,44.39h-1V61.87h2.76V50.25l10.48,11.9h.93V44.67Z"></path>
    <path d="M.13,80.42H80.55V44.67H77.61V56.19L67.23,44.39h-1V61.87H69V50.25L77.61,60V77.48H3.07V2.94H77.61V33.29H61.5V18.58H58.74v17.2H73.82v0h6.73V33.3h0V0H.13Z"></path>
    <path d="M3.76,92.52a2.76,2.76,0,0,0-2.16.9V88.75H0v11.41H1.6V95.72a1.71,1.71,0,0,1,.48-1.25A1.67,1.67,0,0,1,3.3,94a1.56,1.56,0,0,1,1.19.48,1.81,1.81,0,0,1,.44,1.26v4.44h1.6V95.49a3,3,0,0,0-.75-2.14A2.59,2.59,0,0,0,3.76,92.52Z"></path>
    <path d="M12.21,92.52a3.88,3.88,0,0,0-2.8,1.12,3.94,3.94,0,0,0,0,5.54,4,4,0,0,0,5.61,0,3.9,3.9,0,0,0,0-5.55A3.94,3.94,0,0,0,12.21,92.52Zm1.66,5.64a2.23,2.23,0,0,1-1.66.69,2.2,2.2,0,0,1-1.66-.69,2.63,2.63,0,0,1,0-3.47A2.27,2.27,0,0,1,12.23,94a2.21,2.21,0,0,1,1.65.71,2.6,2.6,0,0,1,0,3.47Z"></path>
    <path d="M23.86,93.76a3.07,3.07,0,0,0-2.65-1.23,3.5,3.5,0,0,0-2.6,1,3.67,3.67,0,0,0-1,2.69,3.71,3.71,0,0,0,1,2.69,3.5,3.5,0,0,0,2.6,1.05A3.15,3.15,0,0,0,23.73,99v.52a2,2,0,0,1-.61,1.59,2.36,2.36,0,0,1-1.63.54,4.17,4.17,0,0,1-2.62-1.06L18,101.66a5.06,5.06,0,0,0,3.59,1.41,3.81,3.81,0,0,0,2.72-1,3.54,3.54,0,0,0,1-2.72V92.7H23.85v1.06ZM23.09,98a2.25,2.25,0,0,1-1.59.61A2.2,2.2,0,0,1,19.87,98a2.29,2.29,0,0,1-.65-1.7A2.21,2.21,0,0,1,21.5,94a2.31,2.31,0,0,1,1.59.58,2.17,2.17,0,0,1,.66,1.72A2.27,2.27,0,0,1,23.09,98Z"></path>
    <path d="M31,92.52a3.71,3.71,0,0,0-2.74,1.13,3.83,3.83,0,0,0-1.12,2.78,3.72,3.72,0,0,0,1.14,2.77,4,4,0,0,0,2.87,1.12,4.2,4.2,0,0,0,3-1.2L33.41,98a3.21,3.21,0,0,1-2.17.88,2.53,2.53,0,0,1-1.63-.52,2.29,2.29,0,0,1-.81-1.44h5.57a4.54,4.54,0,0,0,.12-1,3.33,3.33,0,0,0-1-2.45A3.41,3.41,0,0,0,31,92.52ZM28.83,95.7a2.32,2.32,0,0,1,.77-1.33A2.06,2.06,0,0,1,31,93.88a1.92,1.92,0,0,1,1.35.49,1.76,1.76,0,0,1,.56,1.33Z"></path>
    <path d="M39.35,95.79l-.72-.29a3.1,3.1,0,0,1-.77-.4.61.61,0,0,1-.22-.48q0-.72,1-.72a2.33,2.33,0,0,1,1.75.76l.87-1a3.22,3.22,0,0,0-2.59-1.16,3,3,0,0,0-1.89.58,1.88,1.88,0,0,0-.74,1.58A1.75,1.75,0,0,0,36.54,96a4.66,4.66,0,0,0,1.47.9l.76.32a4.4,4.4,0,0,1,.8.41.59.59,0,0,1,.25.52.7.7,0,0,1-.34.62,1.61,1.61,0,0,1-.86.21,2.93,2.93,0,0,1-2.1-1.06l-.91,1a3.59,3.59,0,0,0,3,1.44,3.19,3.19,0,0,0,2-.6A2,2,0,0,0,41.39,98a1.78,1.78,0,0,0-.49-1.3A4.77,4.77,0,0,0,39.35,95.79Z"></path>
    <path d="M46.73,94a2.4,2.4,0,0,1,2,1.14l1.12-.88A3.52,3.52,0,0,0,48.56,93a3.65,3.65,0,0,0-1.85-.46,3.88,3.88,0,0,0-2.8,1.12,3.71,3.71,0,0,0-1.15,2.77,3.74,3.74,0,0,0,1.15,2.78,3.81,3.81,0,0,0,2.8,1.13,3.5,3.5,0,0,0,3.15-1.73l-1.12-.87a2.43,2.43,0,0,1-2,1.12,2.22,2.22,0,0,1-1.68-.69,2.6,2.6,0,0,1,0-3.46A2.2,2.2,0,0,1,46.73,94Z"></path>
    <path d="M55.38,92.52a2.76,2.76,0,0,0-2.16.9V88.75h-1.6v11.41h1.6V95.72a1.71,1.71,0,0,1,.48-1.25A1.67,1.67,0,0,1,54.92,94a1.54,1.54,0,0,1,1.19.48,1.81,1.81,0,0,1,.44,1.26v4.44h1.6V95.49a3,3,0,0,0-.75-2.14A2.58,2.58,0,0,0,55.38,92.52Z"></path>
    <path d="M63.84,92.52A3.86,3.86,0,0,0,61,93.64a3.94,3.94,0,0,0,0,5.54,4,4,0,0,0,5.61,0,3.9,3.9,0,0,0,0-5.55A3.89,3.89,0,0,0,63.84,92.52Zm1.65,5.64a2.23,2.23,0,0,1-1.66.69,2.2,2.2,0,0,1-1.66-.69,2.63,2.63,0,0,1,0-3.47A2.27,2.27,0,0,1,63.85,94a2.21,2.21,0,0,1,1.65.71,2.42,2.42,0,0,1,.66,1.74A2.38,2.38,0,0,1,65.49,98.16Z"></path>
    <path d="M73.1,92.52a3.88,3.88,0,0,0-2.8,1.12,3.94,3.94,0,0,0,0,5.54,4,4,0,0,0,5.61,0,3.9,3.9,0,0,0,0-5.55A4,4,0,0,0,73.1,92.52Zm1.65,5.64a2.23,2.23,0,0,1-1.66.69,2.2,2.2,0,0,1-1.66-.69,2.63,2.63,0,0,1,0-3.47A2.27,2.27,0,0,1,73.11,94a2.21,2.21,0,0,1,1.65.71,2.42,2.42,0,0,1,.66,1.74A2.38,2.38,0,0,1,74.75,98.16Z"></path>
    <path d="M80.49,88.75h-1.6v11.41h1.6Z"></path>
</svg>
