<svg xmlns="http://www.w3.org/2000/svg" width="83.405" height="62.554" viewBox="0 0 83.405 62.554">
  <path id="Icon_metro-profile" data-name="Icon metro-profile" d="M81.946,16.648H76.114V7.9l-12.04-.185.063,8.936H27.956L28.2,7.712,16.414,7.9v8.936l-5.958-.185A5.96,5.96,0,0,0,4.5,22.606v41.7a5.96,5.96,0,0,0,5.958,5.958h71.49A5.96,5.96,0,0,0,87.9,64.309v-41.7A5.96,5.96,0,0,0,81.946,16.648ZM67.053,10.691H73.01V22.606H67.053ZM28.329,30.982c3.6,0,6.518,3.834,6.518,8.564s-2.919,8.564-6.518,8.564-6.518-3.834-6.518-8.564,2.919-8.564,6.518-8.564ZM19.393,10.691H25.35V22.606H19.393ZM15.422,58.2s.706-5.666,2.312-6.735,6.226-1.781,6.226-1.781,3,3.2,4.272,3.2,4.269-3.2,4.269-3.2,4.623.709,6.229,1.781c1.886,1.257,2.356,6.735,2.356,6.735H15.422Zm60.567-2.824H49.18V52.393H75.989Zm0-5.958H49.18V46.436H75.989Zm0-5.958H49.18V40.478H75.989Zm0-5.958H49.18V34.521H75.989Z" transform="translate(-4.499 -7.712)" fill="#bfc9d3"/>
</svg>
