<svg id="Laag_1" data-name="Laag 1" xmlns="http://www.w3.org/2000/svg" viewBox="0 0 239.68 46.75"><defs><style>.cls-1{fill:#1d1d1b;}.cls-2{fill:none;stroke:#1d1d1b;stroke-miterlimit:10;stroke-width:4px;}</style></defs><path class="cls-1" d="M0,45V2.34H14c4.62,0,8.11,1,10.44,2.87s3.5,4.75,3.5,8.5A8.69,8.69,0,0,1,26.19,19a11,11,0,0,1-4.63,3.56A9.86,9.86,0,0,1,27,26.24a10.59,10.59,0,0,1,2,6.46,11.42,11.42,0,0,1-3.72,9Q21.59,45,14.79,45ZM5.62,20.54h8.5A8.91,8.91,0,0,0,20,18.69a6.2,6.2,0,0,0,2.22-5c0-2.35-.69-4.06-2-5.13S16.74,6.94,14,6.94H5.62Zm0,4.51V40.4h9.29a9,9,0,0,0,6.2-2,7.14,7.14,0,0,0,2.27-5.61q0-7.69-8.38-7.7Z"/><path class="cls-1" d="M56.07,44.41a11.52,11.52,0,0,1-.76-3.34,12.07,12.07,0,0,1-9,3.93,11.16,11.16,0,0,1-7.69-2.65,8.59,8.59,0,0,1-3-6.73,9,9,0,0,1,3.76-7.69Q43.13,25.2,50,25.2h5.27V22.71a6.09,6.09,0,0,0-1.69-4.53,6.87,6.87,0,0,0-5-1.69A7.89,7.89,0,0,0,43.65,18a4.31,4.31,0,0,0-2,3.54H36.24a7.47,7.47,0,0,1,1.68-4.58,11.49,11.49,0,0,1,4.58-3.5,15.32,15.32,0,0,1,6.34-1.29q5.47,0,8.58,2.74a9.84,9.84,0,0,1,3.22,7.54V37a17.91,17.91,0,0,0,1.12,7v.46Zm-9-4.13A9.49,9.49,0,0,0,51.91,39a7.89,7.89,0,0,0,3.31-3.42V29H51q-10,0-10,5.83a5,5,0,0,0,1.69,4A6.59,6.59,0,0,0,47.08,40.28Z"/><path class="cls-1" d="M76.49,5v7.67h5.92V16.9H76.49V36.59a4.39,4.39,0,0,0,.8,2.86A3.32,3.32,0,0,0,80,40.4a13.47,13.47,0,0,0,2.58-.35v4.37A15.73,15.73,0,0,1,78.4,45a6.74,6.74,0,0,1-5.48-2.2,9.42,9.42,0,0,1-1.85-6.24V16.9H65.3V12.71h5.77V5Z"/><path class="cls-1" d="M96.09,5v7.67H102V16.9H96.09V36.59a4.45,4.45,0,0,0,.79,2.86,3.36,3.36,0,0,0,2.7.95,13.47,13.47,0,0,0,2.58-.35v4.37A15.73,15.73,0,0,1,98,45a6.74,6.74,0,0,1-5.48-2.2,9.42,9.42,0,0,1-1.85-6.24V16.9H84.9V12.71h5.77V5Z"/><path class="cls-1" d="M114.23,45h-5.42V0h5.42Z"/><path class="cls-1" d="M136.05,45a13.84,13.84,0,0,1-10.48-4.23q-4-4.25-4-11.33v-1A19,19,0,0,1,123.33,20a14.11,14.11,0,0,1,5-5.8,12.73,12.73,0,0,1,7-2.09q6.18,0,9.61,4.07t3.43,11.66v2.26H126.94a11.26,11.26,0,0,0,2.74,7.57,8.63,8.63,0,0,0,6.67,2.89,9.36,9.36,0,0,0,4.86-1.18,12.21,12.21,0,0,0,3.49-3.1L148,38.88Q144,45,136.05,45Zm-.67-28.42A7.25,7.25,0,0,0,129.87,19a11.61,11.61,0,0,0-2.75,6.69H143v-.41a10.35,10.35,0,0,0-2.23-6.4A6.81,6.81,0,0,0,135.38,16.58Z"/><path class="cls-1" d="M155.54,45V2.34h13.94q6.95,0,10.45,2.87t3.5,8.5a8.69,8.69,0,0,1-1.7,5.29,11,11,0,0,1-4.63,3.56,9.84,9.84,0,0,1,5.46,3.68,10.53,10.53,0,0,1,2,6.46,11.42,11.42,0,0,1-3.72,9Q177.13,45,170.33,45Zm5.62-24.46h8.5a8.91,8.91,0,0,0,5.9-1.85,6.2,6.2,0,0,0,2.21-5q0-3.53-2.05-5.13c-1.36-1.06-3.44-1.6-6.24-1.6h-8.32Zm0,4.51V40.4h9.29a9,9,0,0,0,6.2-2,7.14,7.14,0,0,0,2.27-5.61q0-7.69-8.38-7.7Z"/><path class="cls-1" d="M233.61,5v7.67h5.92V16.9h-5.92V36.59a4.45,4.45,0,0,0,.79,2.86,3.36,3.36,0,0,0,2.7.95,13.47,13.47,0,0,0,2.58-.35v4.37a15.73,15.73,0,0,1-4.16.58A6.74,6.74,0,0,1,230,42.8a9.42,9.42,0,0,1-1.85-6.24V16.9h-5.77V12.71h5.77V5Z"/><rect class="cls-2" x="195.1" y="22.29" width="16.79" height="16.79"/><path class="cls-1" d="M195.62,15.62v6.43a1.76,1.76,0,0,0,1.75,1.75,1.79,1.79,0,0,0,1.75-1.75V15.62a1.75,1.75,0,0,0-3.5,0Z"/><path class="cls-1" d="M207.91,15.62v6.43a1.76,1.76,0,0,0,1.75,1.75,1.78,1.78,0,0,0,1.75-1.75V15.62a1.75,1.75,0,0,0-3.5,0Z"/><path class="cls-1" d="M201.76,15.62v6.43a1.75,1.75,0,1,0,3.5,0V15.62a1.75,1.75,0,0,0-3.5,0Z"/><path class="cls-1" d="M195.62,39.32V45a1.76,1.76,0,0,0,1.75,1.75A1.79,1.79,0,0,0,199.12,45V39.32a1.75,1.75,0,1,0-3.5,0Z"/><path class="cls-1" d="M207.91,39.32V45a1.75,1.75,0,0,0,3.5,0V39.32a1.75,1.75,0,1,0-3.5,0Z"/><path class="cls-1" d="M201.76,39.32V45a1.75,1.75,0,0,0,3.5,0V39.32a1.75,1.75,0,1,0-3.5,0Z"/><path class="cls-1" d="M188.82,38.44h6.43a1.75,1.75,0,0,0,0-3.5h-6.43a1.75,1.75,0,0,0,0,3.5Z"/><path class="cls-1" d="M188.82,26.15h6.43a1.75,1.75,0,0,0,0-3.5h-6.43a1.75,1.75,0,0,0,0,3.5Z"/><path class="cls-1" d="M188.82,32.29h6.43A1.76,1.76,0,0,0,197,30.54a1.78,1.78,0,0,0-1.75-1.75h-6.43a1.75,1.75,0,0,0,0,3.5Z"/><path class="cls-1" d="M211.74,38.44h6.43a1.76,1.76,0,0,0,1.75-1.75,1.78,1.78,0,0,0-1.75-1.75h-6.43a1.75,1.75,0,0,0,0,3.5Z"/><path class="cls-1" d="M211.74,26.15h6.43a1.75,1.75,0,0,0,0-3.5h-6.43a1.75,1.75,0,0,0,0,3.5Z"/><path class="cls-1" d="M211.74,32.29h6.43a1.76,1.76,0,0,0,1.75-1.75,1.79,1.79,0,0,0-1.75-1.75h-6.43a1.75,1.75,0,0,0,0,3.5Z"/></svg>