<?xml version="1.0" standalone="no"?>
<svg xmlns="http://www.w3.org/2000/svg" viewBox="0 0 100 70" width="100" height="70"><g fill="#ff0000" color="#ff0000" transform="translate(27.548 0) scale(0.44) "><svg width="100.0" height="100.0" x="0.0" y="0.0" viewBox="0 0 100 100"><g><rect x="-192" width="185" height="99"></rect><rect y="-36" width="100" height="30"></rect><text transform="matrix(1 0 0 1 66 -19.5)" fill="currentColor" font-family="'Helvetica'" font-size="2.4"></text><text transform="matrix(1 0 0 1 7.166 -24.5)"><tspan x="0" y="0" fill="currentColor" font-family="'Helvetica-Bold'" font-size="6.1578"></tspan><tspan x="1.12" y="4.8" fill="currentColor" font-family="'Helvetica-Bold'" font-size="4"></tspan></text><text transform="matrix(1 0 0 1 -178.5 10.5)" fill="currentColor" font-family="'Helvetica-Bold'" font-size="6.1578"></text><line fill="currentColor" stroke="currentColor" stroke-miterlimit="10" x1="8" y1="-14.5" x2="18" y2="-14.5"></line><line fill="currentColor" stroke="currentColor" stroke-miterlimit="10" x1="-179" y1="16.5" x2="-162" y2="16.5"></line><g><g><g><rect x="-170.802" y="31.318" fill="currentColor" width="8.721" height="8.642"></rect><path fill="currentColor" d="M-164.455,42.312h4.747v-4.703h-4.747V42.312z M-159.266,42.749h-5.63V37.17h5.63V42.749      L-159.266,42.749z M-166.221,44.062h8.279v-8.203h-8.279V44.062L-166.221,44.062z M-157.5,44.5h-9.163v-9.079h9.163V44.5      L-157.5,44.5z"></path><polygon fill="currentColor" points="-166.149,44.133 -166.292,43.991 -158.013,35.787 -157.871,35.929     "></polygon></g></g></g><rect x="-179" y="58" fill="none" width="35" height="32.5"></rect><text transform="matrix(1 0 0 1 -179 60.1572)"><tspan x="0" y="0" fill="currentColor" font-family="'Helvetica-Bold'" font-size="3"></tspan><tspan x="0" y="5" fill="currentColor" font-family="'Helvetica'" font-size="2.4"></tspan><tspan x="0" y="10" fill="currentColor" font-family="'Helvetica'" font-size="2.4"></tspan><tspan x="0" y="14.5" fill="currentColor" font-family="'Helvetica'" font-size="2.4"></tspan><tspan x="0" y="17.5" fill="currentColor" font-family="'Helvetica'" font-size="2.4"></tspan><tspan x="0" y="22" fill="currentColor" font-family="'Helvetica-Bold'" font-size="2.4"></tspan><tspan x="0" y="25" fill="currentColor" font-family="'Helvetica-Bold'" font-size="2.4"></tspan></text><rect x="-136.5" y="58" fill="none" width="35" height="32.5"></rect><text transform="matrix(1 0 0 1 -136.5 60.1572)"><tspan x="0" y="0" fill="currentColor" font-family="'Helvetica-Bold'" font-size="3"></tspan><tspan x="0" y="5" fill="currentColor" font-family="'Helvetica'" font-size="2.4"></tspan><tspan x="0" y="8.5" fill="currentColor" font-family="'Helvetica'" font-size="2.4"></tspan><tspan x="0" y="13.5" fill="currentColor" font-family="'Helvetica'" font-size="2.4"></tspan><tspan x="0" y="16.5" fill="currentColor" font-family="'Helvetica'" font-size="2.4"></tspan></text><rect x="-94" y="58" fill="none" width="35" height="32.5"></rect><text transform="matrix(1 0 0 1 -94 60.1572)"><tspan x="0" y="0" fill="currentColor" font-family="'Helvetica-Bold'" font-size="3"></tspan><tspan x="0" y="5" fill="currentColor" font-family="'Helvetica'" font-size="2.4"></tspan><tspan x="0" y="8" fill="currentColor" font-family="'Helvetica'" font-size="2.4"></tspan></text><rect x="-50" y="58" fill="none" width="35" height="32.5"></rect><text transform="matrix(1 0 0 1 -50 60.1572)"><tspan x="0" y="0" fill="currentColor" font-family="'Helvetica-Bold'" font-size="3"></tspan><tspan x="0" y="5" fill="currentColor" font-family="'Helvetica'" font-size="2.4"></tspan><tspan x="0" y="8" fill="currentColor" font-family="'Helvetica'" font-size="2.4"></tspan></text><text transform="matrix(1.0074 0 0 1 -125.542 30.5933)" fill="currentColor" font-family="'Helvetica'" font-size="2.5731"></text><text transform="matrix(1.0074 0 0 1 -41 39)" fill="currentColor" font-family="'Helvetica-Bold'" font-size="5.1462"></text><rect x="-126.514" y="34.815" fill="currentColor" width="10.261" height="10.185"></rect><rect x="-126.477" y="31.766" fill="currentColor" width="0.522" height="2.337"></rect><rect x="-116.812" y="31.766" fill="currentColor" width="0.523" height="2.337"></rect><rect x="-127" y="32.337" fill="currentColor" width="11.233" height="0.572"></rect><g><rect x="-83.805" y="33.844" fill="currentColor" width="10.305" height="10.156"></rect><rect x="-76.809" y="28.707" fill="currentColor" width="3.308" height="3.261"></rect></g><rect x="-178.5" y="22.5" fill="currentColor" stroke="currentColor" stroke-miterlimit="10" width="30" height="30"></rect><rect x="-136.5" y="22.5" fill="currentColor" stroke="currentColor" stroke-miterlimit="10" width="30" height="30"></rect><rect x="-93.5" y="22.5" fill="currentColor" stroke="currentColor" stroke-miterlimit="10" width="30" height="30"></rect><rect x="-49.5" y="22.5" fill="currentColor" stroke="currentColor" stroke-miterlimit="10" width="30" height="30"></rect></g><g><g><g><g><path fill-rule="evenodd" clip-rule="evenodd" d="M85.405,30h-70.34C7.849,30,2,36.191,2,43.556V81h96V43.556      C98,36.191,92.622,30,85.405,30z M28.614,60.425c-4.749,0-8.598-3.929-8.598-8.775c0-4.846,3.849-8.776,8.598-8.776      s8.597,3.93,8.597,8.776C37.211,56.496,33.363,60.425,28.614,60.425z M72.585,60.425c-4.748,0-8.598-3.929-8.598-8.775      c0-4.846,3.85-8.776,8.598-8.776c4.747,0,8.597,3.93,8.597,8.776C81.182,56.496,77.332,60.425,72.585,60.425z"></path></g></g></g><g><g><g><path fill-rule="evenodd" clip-rule="evenodd" d="M20.169,84.443h59.396c1.704,0,3.083,1.409,3.083,3.147      c0,1.739-1.379,3.148-3.083,3.148H20.169c-1.703,0-3.084-1.409-3.084-3.148C17.085,85.853,18.466,84.443,20.169,84.443z"></path></g></g></g><g><g><g><path fill-rule="evenodd" clip-rule="evenodd" d="M30.213,93.649h39.84c1.704,0,3.084,1.41,3.084,3.149s-1.38,3.147-3.084,3.147      h-39.84c-1.703,0-3.084-1.408-3.084-3.147S28.51,93.649,30.213,93.649z"></path></g></g></g><g><g><g><path fill-rule="evenodd" clip-rule="evenodd" d="M57.212,6.41c0-3.54-2.721-6.41-6.19-6.41c-3.466,0-6.021,2.87-6.021,6.41      c0,2.201,0.999,4.142,2.999,5.296v10.907c0,1.869,1.171,3.383,3,3.383c1.831,0,3-1.514,3-3.383V11.888      C56,10.764,57.212,8.735,57.212,6.41z"></path></g></g></g></g></svg></g><path fill="#00bdff" fill-rule="nonzero" d="M4.39 16.97L0.10 16.97Q0 16.97 0 16.85L0 16.85L0.05 0.36Q0.05 0.26 0.14 0.26L0.14 0.26L4.75 0.26Q6.12 0.26 7.20 0.92Q8.28 1.58 8.90 2.66Q9.53 3.74 9.53 5.02L9.53 5.02Q9.53 6.05 9.06 6.94Q8.59 7.82 7.94 8.38L7.94 8.38Q8.64 9.07 9.02 9.98Q9.41 10.90 9.41 11.90L9.41 11.90Q9.41 13.30 8.74 14.45Q8.06 15.60 6.92 16.28Q5.78 16.97 4.39 16.97L4.39 16.97ZM2.93 3.12L2.93 6.89L4.75 6.89Q5.59 6.89 6.11 6.30Q6.62 5.71 6.62 5.02L6.62 5.02Q6.62 4.25 6.07 3.68Q5.52 3.12 4.75 3.12L4.75 3.12L2.93 3.12ZM2.93 9.79L2.90 14.04L4.39 14.04Q5.26 14.04 5.88 13.40Q6.50 12.77 6.50 11.90L6.50 11.90Q6.50 11.04 5.88 10.42Q5.26 9.79 4.39 9.79L4.39 9.79L2.93 9.79ZM9.84 16.85L9.84 16.85L12.82 0.36Q12.84 0.26 12.94 0.26L12.94 0.26L16.42 0.26Q16.51 0.26 16.54 0.36L16.54 0.36L19.39 16.85Q19.42 16.97 19.30 16.97L19.30 16.97L16.63 16.97Q16.54 16.97 16.51 16.85L16.51 16.85L16.25 15.10L12.98 15.10L12.72 16.85Q12.70 16.97 12.60 16.97L12.60 16.97L9.94 16.97Q9.84 16.97 9.84 16.85ZM14.54 5.78L13.46 12.53L15.77 12.53L14.78 5.78L14.64 4.90L14.54 5.78ZM24.86 16.97L22.15 16.97Q22.06 16.97 22.06 16.85L22.06 16.85L22.06 3.17L18.94 3.17Q18.82 3.17 18.82 3.05L18.82 3.05L18.84 0.36Q18.84 0.26 18.94 0.26L18.94 0.26L28.06 0.26Q28.18 0.26 28.18 0.36L28.18 0.36L28.18 3.05Q28.18 3.17 28.08 3.17L28.08 3.17L24.94 3.17L24.96 16.85Q24.96 16.97 24.86 16.97L24.86 16.97ZM34.46 16.97L31.75 16.97Q31.66 16.97 31.66 16.85L31.66 16.85L31.66 3.17L28.54 3.17Q28.42 3.17 28.42 3.05L28.42 3.05L28.44 0.36Q28.44 0.26 28.54 0.26L28.54 0.26L37.66 0.26Q37.78 0.26 37.78 0.36L37.78 0.36L37.78 3.05Q37.78 3.17 37.68 3.17L37.68 3.17L34.54 3.17L34.56 16.85Q34.56 16.97 34.46 16.97L34.46 16.97ZM47.28 16.97L39.53 16.97Q39.43 16.97 39.43 16.85L39.43 16.85L39.46 0.38Q39.46 0.26 39.58 0.26L39.58 0.26L42.24 0.26Q42.36 0.26 42.36 0.38L42.36 0.38L42.34 14.02L47.28 14.02Q47.40 14.02 47.40 14.14L47.40 14.14L47.40 16.85Q47.40 16.97 47.28 16.97L47.28 16.97ZM56.81 16.97L49.06 16.97Q48.96 16.97 48.96 16.85L48.96 16.85L48.98 0.36Q48.98 0.26 49.08 0.26L49.08 0.26L56.78 0.26Q56.88 0.26 56.88 0.38L56.88 0.38L56.88 3.07Q56.88 3.17 56.78 3.17L56.78 3.17L51.86 3.17L51.86 6.91L56.78 6.91Q56.88 6.91 56.88 7.01L56.88 7.01L56.90 9.72Q56.90 9.82 56.81 9.82L56.81 9.82L51.86 9.82L51.86 14.02L56.81 14.02Q56.90 14.02 56.90 14.14L56.90 14.14L56.90 16.87Q56.90 16.97 56.81 16.97L56.81 16.97ZM63.43 16.97L59.14 16.97Q59.04 16.97 59.04 16.85L59.04 16.85L59.09 0.36Q59.09 0.26 59.18 0.26L59.18 0.26L63.79 0.26Q65.16 0.26 66.24 0.92Q67.32 1.58 67.94 2.66Q68.57 3.74 68.57 5.02L68.57 5.02Q68.57 6.05 68.10 6.94Q67.63 7.82 66.98 8.38L66.98 8.38Q67.68 9.07 68.06 9.98Q68.45 10.90 68.45 11.90L68.45 11.90Q68.45 13.30 67.78 14.45Q67.10 15.60 65.96 16.28Q64.82 16.97 63.43 16.97L63.43 16.97ZM61.97 3.12L61.97 6.89L63.79 6.89Q64.63 6.89 65.15 6.30Q65.66 5.71 65.66 5.02L65.66 5.02Q65.66 4.25 65.11 3.68Q64.56 3.12 63.79 3.12L63.79 3.12L61.97 3.12ZM61.97 9.79L61.94 14.04L63.43 14.04Q64.30 14.04 64.92 13.40Q65.54 12.77 65.54 11.90L65.54 11.90Q65.54 11.04 64.92 10.42Q64.30 9.79 63.43 9.79L63.43 9.79L61.97 9.79ZM74.62 17.21L74.62 17.21Q73.32 17.21 72.25 16.55Q71.18 15.89 70.54 14.80Q69.89 13.70 69.89 12.38L69.89 12.38L69.91 4.78Q69.91 3.46 70.55 2.38Q71.18 1.30 72.26 0.65Q73.34 0 74.62 0L74.62 0Q75.91 0 76.97 0.65Q78.02 1.30 78.66 2.38Q79.30 3.46 79.30 4.78L79.30 4.78L79.32 12.38Q79.32 13.70 78.68 14.80Q78.05 15.89 76.98 16.55Q75.91 17.21 74.62 17.21ZM74.62 14.30L74.62 14.30Q75.34 14.30 75.88 13.72Q76.42 13.13 76.42 12.38L76.42 12.38L76.39 4.78Q76.39 3.98 75.89 3.43Q75.38 2.88 74.62 2.88L74.62 2.88Q73.87 2.88 73.34 3.42Q72.82 3.96 72.82 4.78L72.82 4.78L72.82 12.38Q72.82 13.18 73.34 13.74Q73.87 14.30 74.62 14.30ZM85.94 16.97L83.23 16.97Q83.14 16.97 83.14 16.85L83.14 16.85L83.14 3.17L80.02 3.17Q79.90 3.17 79.90 3.05L79.90 3.05L79.92 0.36Q79.92 0.26 80.02 0.26L80.02 0.26L89.14 0.26Q89.26 0.26 89.26 0.36L89.26 0.36L89.26 3.05Q89.26 3.17 89.16 3.17L89.16 3.17L86.02 3.17L86.04 16.85Q86.04 16.97 85.94 16.97L85.94 16.97ZM94.39 17.21L94.39 17.21Q93.10 17.21 92.03 16.55Q90.96 15.89 90.32 14.80Q89.69 13.70 89.69 12.38L89.69 12.38L89.69 11.28Q89.69 11.16 89.81 11.16L89.81 11.16L92.50 11.16Q92.59 11.16 92.59 11.28L92.59 11.28L92.59 12.38Q92.59 13.18 93.12 13.74Q93.65 14.30 94.39 14.30L94.39 14.30Q95.14 14.30 95.66 13.73Q96.19 13.15 96.19 12.38L96.19 12.38Q96.19 11.50 95.04 10.85L95.04 10.85Q94.66 10.63 93.84 10.18Q93.02 9.72 92.30 9.31L92.30 9.31Q90.98 8.54 90.35 7.38Q89.71 6.22 89.71 4.75L89.71 4.75Q89.71 3.41 90.36 2.34Q91.01 1.27 92.08 0.65Q93.14 0.02 94.39 0.02L94.39 0.02Q95.66 0.02 96.73 0.66Q97.80 1.30 98.44 2.36Q99.07 3.43 99.07 4.75L99.07 4.75L99.07 6.72Q99.07 6.82 98.98 6.82L98.98 6.82L96.29 6.82Q96.19 6.82 96.19 6.72L96.19 6.72L96.17 4.75Q96.17 3.91 95.64 3.38Q95.11 2.86 94.39 2.86L94.39 2.86Q93.65 2.86 93.12 3.42Q92.59 3.98 92.59 4.75L92.59 4.75Q92.59 5.54 92.93 6.07Q93.26 6.60 94.15 7.08L94.15 7.08Q94.27 7.15 94.62 7.33Q94.97 7.51 95.38 7.74Q95.78 7.97 96.11 8.14Q96.43 8.30 96.50 8.35L96.50 8.35Q97.70 9.02 98.40 10.00Q99.10 10.97 99.10 12.38L99.10 12.38Q99.10 13.75 98.46 14.84Q97.82 15.94 96.76 16.57Q95.69 17.21 94.39 17.21Z" transform="translate(0, 52)"></path></svg>